# xmcd
#
# Track frame offsets: 
#        170
#        62858
#        70392
#        102395
#        129247
#        192579
#        237837
#        253081
#
# Disc length: 4226 seconds
#
# Revision: 5
# Processed by: cddbd v1.5.2PL0 Copyright (c) Steve Scherf et al.
# Submitted via: ExactAudioCopy v0.99pb4
#
DISCID=76108008
DTITLE=Keith Jarrett - Radiance [CD 2)
DYEAR=2002
DGENRE=Jazz
TTITLE0=10-Osaka October 27,2002 Part 10
TTITLE1=11-Osaka October 27,2002 Part 11
TTITLE2=12-Osaka October 27,2002 Part 12
TTITLE3=13-Osaka October 27,2002 Part 13
TTITLE4=14-Tokyo October 30,2002 Part 14
TTITLE5=15-Tokyo October 30,2002 Part 15
TTITLE6=16-Tokyo October 30,2002 Part 16
TTITLE7=17-Tokyo October 30,2002 Part 17
EXTD=YEAR: 2002
EXTT0=
EXTT1=
EXTT2=
EXTT3=
EXTT4=
EXTT5=
EXTT6=
EXTT7=
PLAYORDER=
